<svg width="37" height="28" viewBox="0 0 37 28" fill="none" xmlns="http://www.w3.org/2000/svg">
<path d="M36.52 13.28L35.67 13.22C32.33 12.98 32.4 9.96001 32.4 9.96001C32.46 6.25001 30.33 0.34 21.99 0H7.56L7.35999 0.720001H19.46C20.69 0.750001 21.55 1.64001 21.14 3.10001L18.97 10.98C18.15 13.34 15.98 13.22 15.98 13.22C13.76 13.03 14.38 10.93 14.38 10.93L15.37 7.31C15.68 6.08 14.81 5.5 14.05 5.48H6.03998L5.83997 6.2H9.27002C10.53 6.23 10.8 7.17 10.58 8.02C10.58 8.02 10.15 9.51999 9.64996 11.4C9.15996 13.22 7.46998 13.27 7.22998 13.27H3.89001L3.65997 14.12H6.82001C7.18001 14.12 8.89001 14.19 8.38 16.01C7.84 17.9 7.45001 19.39 7.45001 19.39C7.20001 20.24 6.42001 21.17 5.14001 21.21H1.70001L1.51001 21.94H9.52997C10.3 21.92 11.49 21.34 11.87 20.1L12.86 16.5C12.86 16.5 13.39 14.39 15.72 14.2C15.72 14.2 17.96 14.08 17.48 16.44L15.32 24.32C14.92 25.78 13.56 26.69 12.33 26.7H0.209961L0 27.43H14.45C22.98 27.08 28.36 21.18 30.35 17.46C30.35 17.46 31.95 14.43 35.43 14.2L36.29 14.14C36.29 14.14 36.35 14.14 36.37 14.09C36.42 13.94 36.57 13.37 36.58 13.33C36.58 13.29 36.58 13.29 36.54 13.28" fill="#0D4689"/>
<path d="M36.52 13.28L35.67 13.22C32.33 12.98 32.4 9.96001 32.4 9.96001C32.46 6.25001 30.33 0.34 21.99 0H7.56L7.35999 0.720001H19.46C20.69 0.750001 21.55 1.64001 21.14 3.10001L18.97 10.98C18.15 13.34 15.98 13.22 15.98 13.22C13.76 13.03 14.38 10.93 14.38 10.93L15.37 7.31C15.68 6.08 14.81 5.5 14.05 5.48H6.03998L5.83997 6.2H9.27002C10.53 6.23 10.8 7.17 10.58 8.02C10.58 8.02 10.15 9.51999 9.64996 11.4C9.15996 13.22 7.46998 13.27 7.22998 13.27H3.89001L3.65997 14.12H6.82001C7.18001 14.12 8.89001 14.19 8.38 16.01C7.84 17.9 7.45001 19.39 7.45001 19.39C7.20001 20.24 6.42001 21.17 5.14001 21.21H1.70001L1.51001 21.94H9.52997C10.3 21.92 11.49 21.34 11.87 20.1L12.86 16.5C12.86 16.5 13.39 14.39 15.72 14.2C15.72 14.2 17.96 14.08 17.48 16.44L15.32 24.32C14.92 25.78 13.56 26.69 12.33 26.7H0.209961L0 27.43H14.45C22.98 27.08 28.36 21.18 30.35 17.46C30.35 17.46 31.95 14.43 35.43 14.2L36.29 14.14C36.29 14.14 36.35 14.14 36.37 14.09C36.42 13.94 36.57 13.37 36.58 13.33C36.58 13.29 36.58 13.29 36.54 13.28" fill="#0D4689"/>
<mask id="mask0_10606_6737" style="mask-type:luminance" maskUnits="userSpaceOnUse" x="0" y="0" width="37" height="28">
<path d="M36.52 13.28L35.67 13.22C32.33 12.98 32.4 9.96001 32.4 9.96001C32.46 6.25001 30.33 0.34 21.99 0H7.56L7.35999 0.720001H19.46C20.69 0.750001 21.55 1.64001 21.14 3.10001L18.97 10.98C18.15 13.34 15.98 13.22 15.98 13.22C13.76 13.03 14.38 10.93 14.38 10.93L15.37 7.31C15.68 6.08 14.81 5.5 14.05 5.48H6.03998L5.83997 6.2H9.27002C10.53 6.23 10.8 7.17 10.58 8.02C10.58 8.02 10.15 9.51999 9.64996 11.4C9.15996 13.22 7.46998 13.27 7.22998 13.27H3.89001L3.65997 14.12H6.82001C7.18001 14.12 8.89001 14.19 8.38 16.01C7.84 17.9 7.45001 19.39 7.45001 19.39C7.20001 20.24 6.42001 21.17 5.14001 21.21H1.70001L1.51001 21.94H9.52997C10.3 21.92 11.49 21.34 11.87 20.1L12.86 16.5C12.86 16.5 13.39 14.39 15.72 14.2C15.72 14.2 17.96 14.08 17.48 16.44L15.32 24.32C14.92 25.78 13.56 26.69 12.33 26.7H0.209961L0 27.43H14.45C22.98 27.08 28.36 21.18 30.35 17.46C30.35 17.46 31.95 14.43 35.43 14.2L36.29 14.14C36.29 14.14 36.35 14.14 36.37 14.09C36.42 13.94 36.57 13.37 36.58 13.33C36.58 13.29 36.58 13.29 36.54 13.28" fill="white"/>
</mask>
<g mask="url(#mask0_10606_6737)">
<path d="M37.11 -0.690002H3.23999V13.71H37.11V-0.690002Z" fill="#0D4689"/>
</g>
</svg>
